<?xml version="1.0" encoding="UTF-8"?>
<svg version="1.1" xmlns="http://www.w3.org/2000/svg" width="68" height="68">
<path d="M0 0 C1.047892 -0.0038269 2.095784 -0.00765381 3.1754303 -0.01159668 C5.39031943 -0.01431718 7.60524061 -0.00694642 9.82006836 0.00976562 C13.20694847 0.03115082 16.59170201 0.00997859 19.97851562 -0.015625 C22.13151509 -0.01298133 24.28451324 -0.00785554 26.4375 0 C27.44908676 -0.00809692 28.46067352 -0.01619385 29.50291443 -0.02453613 C33.69850551 0.03128351 36.61862801 0.2100839 40.43261719 2.04785156 C43.03059704 5.53054147 42.91379452 8.62631327 42.7734375 12.796875 C42.76636276 13.59027283 42.75928802 14.38367065 42.7519989 15.20111084 C42.72406673 17.72879365 42.66133614 20.25423988 42.59765625 22.78125 C42.5725716 24.49736378 42.54975871 26.21351238 42.52929688 27.9296875 C42.47424464 32.13106671 42.38798488 36.33077952 42.28515625 40.53125 C42.91164062 40.655 43.538125 40.77875 44.18359375 40.90625 C46.28515625 41.53125 46.28515625 41.53125 47.91015625 43.53125 C50.62127096 49.44640937 52.04966422 56.03293227 51.28515625 62.53125 C49.72265625 65.03125 49.72265625 65.03125 47.28515625 66.53125 C43.66015625 66.53125 43.66015625 66.53125 40.28515625 65.53125 C39.16015625 63.53125 39.16015625 63.53125 38.28515625 61.53125 C35.72995704 60.71953772 35.72995704 60.71953772 33.28515625 60.53125 C33.28515625 59.87125 33.28515625 59.21125 33.28515625 58.53125 C31.96515625 58.53125 30.64515625 58.53125 29.28515625 58.53125 C28.95515625 59.52125 28.62515625 60.51125 28.28515625 61.53125 C27.68703125 61.675625 27.08890625 61.82 26.47265625 61.96875 C24.08845229 62.36839968 24.08845229 62.36839968 22.41015625 64.59375 C20.28515625 66.53125 20.28515625 66.53125 17.22265625 66.96875 C14.28515625 66.53125 14.28515625 66.53125 12.41015625 65.40625 C10.83282448 62.77736372 11.21169033 60.5433529 11.28515625 57.53125 C10.6396582 57.55219727 9.99416016 57.57314453 9.32910156 57.59472656 C6.39794557 57.67799205 3.46703848 57.72994206 0.53515625 57.78125 C-0.480625 57.81476562 -1.49640625 57.84828125 -2.54296875 57.8828125 C-3.52265625 57.89570312 -4.50234375 57.90859375 -5.51171875 57.921875 C-6.86281738 57.9532959 -6.86281738 57.9532959 -8.24121094 57.98535156 C-10.71484375 57.53125 -10.71484375 57.53125 -13.00683594 56.19238281 C-15.75822749 51.90562353 -15.28497178 47.54952671 -15.24609375 42.5625 C-15.24992065 41.49004028 -15.25374756 40.41758057 -15.25769043 39.31262207 C-15.26041091 37.04645854 -15.25304028 34.78026369 -15.23632812 32.51416016 C-15.21492169 29.04388472 -15.2361265 25.57567973 -15.26171875 22.10546875 C-15.2590755 19.90364126 -15.25395058 17.70181506 -15.24609375 15.5 C-15.25419067 14.46137817 -15.2622876 13.42275635 -15.27062988 12.35266113 C-15.21912905 8.3996023 -15.17304321 5.42254434 -13.35131836 1.87890625 C-9.04426538 -0.32268023 -4.76658352 -0.03807641 0 0 Z M-11.50280762 3.68051147 C-13.26270659 5.99910176 -13.26270659 5.99910176 -12.71484375 11.53125 C4.77515625 11.53125 22.26515625 11.53125 40.28515625 11.53125 C40.83301909 5.99910176 40.83301909 5.99910176 39.07312012 3.68051147 C36.79557433 2.21655816 35.37893972 2.15093612 32.67773438 2.14306641 C31.28113586 2.12888168 31.28113586 2.12888168 29.85632324 2.1144104 C28.85315063 2.12048309 27.84997803 2.12655579 26.81640625 2.1328125 C25.784552 2.12994232 24.75269775 2.12707214 23.6895752 2.12411499 C21.50740002 2.12207299 19.3252066 2.12761229 17.14306641 2.14013672 C13.79808725 2.15618795 10.45431646 2.14029209 7.109375 2.12109375 C4.99088274 2.12307616 2.87239124 2.12691978 0.75390625 2.1328125 C-0.75085266 2.12370346 -0.75085266 2.12370346 -2.28601074 2.1144104 C-3.21707642 2.12386688 -4.14814209 2.13332336 -5.10742188 2.14306641 C-5.92666138 2.14545319 -6.74590088 2.14783997 -7.58996582 2.15029907 C-9.76086815 2.39921935 -9.76086815 2.39921935 -11.50280762 3.68051147 Z M-12.71484375 12.53125 C-12.77671875 19.069375 -12.83859375 25.6075 -12.90234375 32.34375 C-12.92965576 34.40471924 -12.95696777 36.46568848 -12.98510742 38.58911133 C-12.99386902 40.222162 -13.00151373 41.85521922 -13.0078125 43.48828125 C-13.0231604 44.33660522 -13.0385083 45.1849292 -13.05432129 46.05895996 C-13.05468384 46.87070679 -13.05504639 47.68245361 -13.05541992 48.51879883 C-13.06208176 49.2227327 -13.06874359 49.92666656 -13.0756073 50.65193176 C-12.60286058 53.11460168 -11.66455521 54.00261747 -9.71484375 55.53125 C-7.39712406 55.94358375 -7.39712406 55.94358375 -4.828125 55.82421875 C-3.89033203 55.81455078 -2.95253906 55.80488281 -1.98632812 55.79492188 C-1.00986328 55.76978516 -0.03339844 55.74464844 0.97265625 55.71875 C1.96072266 55.70521484 2.94878906 55.69167969 3.96679688 55.67773438 C6.40679856 55.64237203 8.84570344 55.59302033 11.28515625 55.53125 C12.84787814 51.13871227 12.84787814 51.13871227 13.28515625 46.53125 C12.74246094 46.30050781 12.19976563 46.06976563 11.640625 45.83203125 C8.2903809 44.30480286 5.75373556 43.05840172 3.28515625 40.28125 C1.9543362 36.62149486 1.61402737 33.34177063 2.28515625 29.53125 C3.97407152 26.15341946 5.31675922 24.16762519 8.47265625 22.09375 C13.99859758 20.98856173 18.55672321 21.37896131 23.28515625 24.53125 C25.92133725 28.48552151 26.4726738 31.81774063 26.28515625 36.53125 C25.34765625 39.59375 25.34765625 39.59375 24.28515625 41.53125 C25.27515625 42.19125 26.26515625 42.85125 27.28515625 43.53125 C27.28515625 42.54125 27.28515625 41.55125 27.28515625 40.53125 C28.27515625 40.53125 29.26515625 40.53125 30.28515625 40.53125 C30.28515625 38.88125 30.28515625 37.23125 30.28515625 35.53125 C31.08953125 35.4075 31.89390625 35.28375 32.72265625 35.15625 C33.56828125 34.95 34.41390625 34.74375 35.28515625 34.53125 C35.61515625 33.87125 35.94515625 33.21125 36.28515625 32.53125 C36.28515625 33.52125 36.28515625 34.51125 36.28515625 35.53125 C34.96515625 35.86125 33.64515625 36.19125 32.28515625 36.53125 C32.28515625 37.85125 32.28515625 39.17125 32.28515625 40.53125 C33.27515625 40.53125 34.26515625 40.53125 35.28515625 40.53125 C35.78015625 41.52125 35.78015625 41.52125 36.28515625 42.53125 C37.60515625 41.87125 38.92515625 41.21125 40.28515625 40.53125 C40.28515625 31.29125 40.28515625 22.05125 40.28515625 12.53125 C22.79515625 12.53125 5.30515625 12.53125 -12.71484375 12.53125 Z M5.28515625 26.53125 C2.93273278 29.73910018 2.81673535 32.62774252 3.28515625 36.53125 C5.34594747 40.3584337 7.04041012 43.16197705 11.28515625 44.53125 C12.27515625 44.53125 13.26515625 44.53125 14.28515625 44.53125 C14.93484375 43.850625 14.93484375 43.850625 15.59765625 43.15625 C17.28515625 41.53125 17.28515625 41.53125 20.34765625 40.59375 C23.29498116 39.80190507 23.29498116 39.80190507 24.72265625 37.84375 C25.56549185 34.3787592 25.19111369 31.97388828 24.28515625 28.53125 C21.74705712 24.99329364 19.57714687 23.28709972 15.34765625 22.46875 C10.97798113 22.1713808 8.57409753 23.63384935 5.28515625 26.53125 Z M15.28515625 45.53125 C13.50532561 50.97543783 12.81021293 56.83193018 13.28515625 62.53125 C13.94515625 63.19125 14.60515625 63.85125 15.28515625 64.53125 C18.58230418 64.20153521 19.90784015 63.9085661 22.28515625 61.53125 C22.68563069 59.20849823 23.02486665 56.87385643 23.28515625 54.53125 C21.96515625 54.53125 20.64515625 54.53125 19.28515625 54.53125 C19.28515625 53.87125 19.28515625 53.21125 19.28515625 52.53125 C18.29515625 52.53125 17.30515625 52.53125 16.28515625 52.53125 C16.28515625 50.88125 16.28515625 49.23125 16.28515625 47.53125 C17.27515625 47.53125 18.26515625 47.53125 19.28515625 47.53125 C19.28515625 46.87125 19.28515625 46.21125 19.28515625 45.53125 C20.93515625 45.53125 22.58515625 45.53125 24.28515625 45.53125 C24.28515625 46.19125 24.28515625 46.85125 24.28515625 47.53125 C24.94515625 47.53125 25.60515625 47.53125 26.28515625 47.53125 C26.28515625 49.18125 26.28515625 50.83125 26.28515625 52.53125 C25.62515625 52.53125 24.96515625 52.53125 24.28515625 52.53125 C24.28515625 53.19125 24.28515625 53.85125 24.28515625 54.53125 C29.23332339 57.33521138 33.9019791 56.30475507 39.28515625 55.53125 C39.38828125 56.645 39.49140625 57.75875 39.59765625 58.90625 C39.82453125 60.1025 40.05140625 61.29875 40.28515625 62.53125 C43.06629681 64.86516203 43.06629681 64.86516203 45.97265625 64.15625 C47.11734375 63.846875 47.11734375 63.846875 48.28515625 63.53125 C49.04689017 59.2147578 49.44579229 55.78691547 48.28515625 51.53125 C47.95515625 52.85125 47.62515625 54.17125 47.28515625 55.53125 C44.81015625 55.03625 44.81015625 55.03625 42.28515625 54.53125 C41.95515625 53.21125 41.62515625 51.89125 41.28515625 50.53125 C43.26515625 50.53125 45.24515625 50.53125 47.28515625 50.53125 C46.83811639 46.05241304 46.83811639 46.05241304 44.28515625 42.53125 C40.55219299 42.14838197 39.50889302 42.38209215 36.28515625 44.53125 C33.65625 44.796875 33.65625 44.796875 30.72265625 44.78125 C29.75199219 44.78640625 28.78132813 44.7915625 27.78125 44.796875 C25.28515625 44.53125 25.28515625 44.53125 23.28515625 42.53125 C19.339516 42.02539869 17.75117926 42.4316907 15.28515625 45.53125 Z M29.28515625 42.53125 C33.28515625 43.53125 33.28515625 43.53125 33.28515625 43.53125 Z M21.28515625 47.53125 C20.29515625 48.52125 19.30515625 49.51125 18.28515625 50.53125 C20.26515625 51.52125 20.26515625 51.52125 22.28515625 52.53125 C22.28515625 51.87125 22.28515625 51.21125 22.28515625 50.53125 C22.94515625 50.20125 23.60515625 49.87125 24.28515625 49.53125 C23.62515625 49.53125 22.96515625 49.53125 22.28515625 49.53125 C21.95515625 48.87125 21.62515625 48.21125 21.28515625 47.53125 Z M24.28515625 56.53125 C24.28515625 57.52125 24.28515625 58.51125 24.28515625 59.53125 C25.27515625 59.53125 26.26515625 59.53125 27.28515625 59.53125 C27.28515625 58.54125 27.28515625 57.55125 27.28515625 56.53125 C26.29515625 56.53125 25.30515625 56.53125 24.28515625 56.53125 Z M35.28515625 56.53125 C35.28515625 57.52125 35.28515625 58.51125 35.28515625 59.53125 C36.27515625 59.53125 37.26515625 59.53125 38.28515625 59.53125 C38.28515625 58.54125 38.28515625 57.55125 38.28515625 56.53125 C37.29515625 56.53125 36.30515625 56.53125 35.28515625 56.53125 Z " fill="#90EE90" transform="translate(15.71484375,0.46875)"/>
<path d="M0 0 C7.26 0 14.52 0 22 0 C21.67 1.65 21.34 3.3 21 5 C14.4 5 7.8 5 1 5 C0.67 3.35 0.34 1.7 0 0 Z M2 2 C2 2.33 2 2.66 2 3 C7.94 3 13.88 3 20 3 C20 2.67 20 2.34 20 2 C14.06 2 8.12 2 2 2 Z " fill="#90EE90" transform="translate(31,5)"/>
<path d="M0 0 C3.96 0 7.92 0 12 0 C12 1.32 12 2.64 12 4 C8.04 4 4.08 4 0 4 C0 2.68 0 1.36 0 0 Z " fill="#93EF93" transform="translate(4,16)"/>
<path d="M0 0 C0.66 0 1.32 0 2 0 C1.49228528 5.96564796 -0.38592128 10.63809899 -3 16 C-3.66 16 -4.32 16 -5 16 C-3.41078475 10.63904723 -1.81027062 5.29156027 0 0 Z " fill="#94EF94" transform="translate(31,26)"/>
<path d="M0 0 C1.2065625 0.0309375 1.2065625 0.0309375 2.4375 0.0625 C2.7675 1.0525 3.0975 2.0425 3.4375 3.0625 C2.4475 4.5475 2.4475 4.5475 1.4375 6.0625 C0.1175 5.7325 -1.2025 5.4025 -2.5625 5.0625 C-3.125 3.125 -3.125 3.125 -3.5625 1.0625 C-2.5625 0.0625 -2.5625 0.0625 0 0 Z M-0.5625 2.0625 C0.4375 4.0625 0.4375 4.0625 0.4375 4.0625 Z " fill="#9BF09B" transform="translate(54.5625,45.9375)"/>
<path d="M0 0 C0.99 0 1.98 0 3 0 C2.814375 0.598125 2.62875 1.19625 2.4375 1.8125 C1.77906313 4.16408762 1.77906313 4.16408762 3 7 C1.68 6.34 0.36 5.68 -1 5 C-1 1 -1 1 0 0 Z " fill="#9DEF9D" transform="translate(24,28)"/>
<path d="M0 0 C2.475 0.495 2.475 0.495 5 1 C4.67 2.32 4.34 3.64 4 5 C2.68 5 1.36 5 0 5 C0 3.35 0 1.7 0 0 Z " fill="#94EE94" transform="translate(18,5)"/>
<path d="M0 0 C2.475 0.495 2.475 0.495 5 1 C4.67 2.32 4.34 3.64 4 5 C2.68 5 1.36 5 0 5 C0 3.35 0 1.7 0 0 Z " fill="#94ED94" transform="translate(12,5)"/>
<path d="M0 0 C2.475 0.495 2.475 0.495 5 1 C4.67 2.32 4.34 3.64 4 5 C2.68 5 1.36 5 0 5 C0 3.35 0 1.7 0 0 Z " fill="#94EE94" transform="translate(6,5)"/>
<path d="M0 0 C1.98 0.99 1.98 0.99 4 2 C4 2.99 4 3.98 4 5 C2.02 5.99 2.02 5.99 0 7 C0.2784375 6.1028125 0.2784375 6.1028125 0.5625 5.1875 C1.22093687 2.83591238 1.22093687 2.83591238 0 0 Z " fill="#95EE95" transform="translate(33,33)"/>
<path d="M0 0 C2.31 0 4.62 0 7 0 C7 0.66 7 1.32 7 2 C4.69 2 2.38 2 0 2 C0 1.34 0 0.68 0 0 Z " fill="#8FED8F" transform="translate(43,47)"/>
<path d="M0 0 C2.31 0 4.62 0 7 0 C7 0.66 7 1.32 7 2 C4.69 2 2.38 2 0 2 C0 1.34 0 0.68 0 0 Z " fill="#97EE97" transform="translate(4,21)"/>
<path d="M0 0 C1.98 0 3.96 0 6 0 C6 0.66 6 1.32 6 2 C3.69 2 1.38 2 -1 2 C-0.67 1.34 -0.34 0.68 0 0 Z " fill="#8FEE8F" transform="translate(44,50)"/>
</svg>
