<?xml version="1.0" encoding="UTF-8"?>
<svg version="1.1" xmlns="http://www.w3.org/2000/svg" width="50" height="50">
<path d="M0 0 C1.125 5.75 1.125 5.75 0 8 C-0.15411106 10.0307477 -0.24982453 12.06606421 -0.31640625 14.1015625 C-0.37924805 15.91914062 -0.37924805 15.91914062 -0.44335938 17.7734375 C-0.48267578 19.04445313 -0.52199219 20.31546875 -0.5625 21.625 C-0.62727539 23.543125 -0.62727539 23.543125 -0.69335938 25.5 C-0.7996981 28.66653082 -0.9003767 31.83325079 -1 35 C-6.61 35 -12.22 35 -18 35 C-18 36.32 -18 37.64 -18 39 C-16.35 39 -14.7 39 -13 39 C-12.505 41.475 -12.505 41.475 -12 44 C-19.92 44 -27.84 44 -36 44 C-35.67 42.35 -35.34 40.7 -35 39 C-33.35 39 -31.7 39 -30 39 C-30 37.68 -30 36.36 -30 35 C-35.61 35 -41.22 35 -47 35 C-47 25.43 -47 15.86 -47 6 C-44.53144531 5.98582031 -42.06289063 5.97164063 -39.51953125 5.95703125 C-37.11989816 5.92638772 -34.72053997 5.88730534 -32.32104492 5.84741211 C-30.65773288 5.82426334 -28.9942749 5.80984369 -27.33081055 5.80444336 C-24.93446249 5.7951302 -22.54039941 5.75409449 -20.14453125 5.70703125 C-19.03486748 5.71293022 -19.03486748 5.71293022 -17.90278625 5.71894836 C-13.89572161 5.60655983 -12.2314093 5.20353686 -9.1784668 2.51831055 C-8.45957275 1.68726807 -7.74067871 0.85622559 -7 0 C-3.86650268 -1.04449911 -3.01031744 -0.93423645 0 0 Z M-6.28515625 4.1875 C-7.20167969 5.115625 -8.11820313 6.04375 -9.0625 7 C-10.44115234 8.3921875 -10.44115234 8.3921875 -11.84765625 9.8125 C-12.55792969 10.534375 -13.26820312 11.25625 -14 12 C-13.67 12.99 -13.34 13.98 -13 15 C-9.19364503 11.79239749 -5.45436433 8.59253891 -2 5 C-2.33 4.01 -2.66 3.02 -3 2 C-4.40683762 1.88474951 -4.40683762 1.88474951 -6.28515625 4.1875 Z M-45 8 C-45 14.93 -45 21.86 -45 29 C-31.14 29 -17.28 29 -3 29 C-3 23.06 -3 17.12 -3 11 C-3.969375 11.804375 -4.93875 12.60875 -5.9375 13.4375 C-6.59621094 13.97632813 -7.25492188 14.51515625 -7.93359375 15.0703125 C-10.08162799 16.94309543 -10.08162799 16.94309543 -11.66015625 19.3671875 C-14.50567989 23.14913612 -16.84627791 25.59565681 -21.65283203 26.49804688 C-28.42304122 27.16386208 -35.20428574 27.17615085 -42 27 C-42 26.34 -42 25.68 -42 25 C-37.05 25 -32.1 25 -27 25 C-26.34 22.69 -25.68 20.38 -25 18 C-23.125 15.890625 -23.125 15.890625 -21 14.25 C-18.37698261 12.1863025 -16.88701324 10.83051986 -15 8 C-24.9 8 -34.8 8 -45 8 Z M-18 16 C-18 16.99 -18 17.98 -18 19 C-17.01 18.67 -16.02 18.34 -15 18 C-15.33 17.34 -15.66 16.68 -16 16 C-16.66 16 -17.32 16 -18 16 Z M-22 19 C-22.66 19.66 -23.32 20.32 -24 21 C-24 21.99 -24 22.98 -24 24 C-22.35 23.67 -20.7 23.34 -19 23 C-19.66 21.68 -20.32 20.36 -21 19 C-21.33 19 -21.66 19 -22 19 Z M-45 31 C-45 31.66 -45 32.32 -45 33 C-31.14 33 -17.28 33 -3 33 C-3 32.34 -3 31.68 -3 31 C-16.86 31 -30.72 31 -45 31 Z M-28 35 C-28 36.32 -28 37.64 -28 39 C-25.36 39 -22.72 39 -20 39 C-20 37.68 -20 36.36 -20 35 C-22.64 35 -25.28 35 -28 35 Z M-32 41 C-32 41.33 -32 41.66 -32 42 C-26.72 42 -21.44 42 -16 42 C-16 41.67 -16 41.34 -16 41 C-21.28 41 -26.56 41 -32 41 Z " fill="#FF9999" transform="translate(49,1)"/>
</svg>
