<?xml version="1.0" encoding="UTF-8"?>
<svg version="1.1" xmlns="http://www.w3.org/2000/svg" width="48" height="48">
<path d="M0 0 C3.609375 -0.185625 7.21875 -0.37125 10.9375 -0.5625 C12.05632568 -0.64443604 13.17515137 -0.72637207 14.32788086 -0.81079102 C20.00889208 -0.95089551 23.75966487 -0.17791383 28.21875 3.46875 C34.0077009 10.09973012 32.97672855 17.76693181 32.5625 26.0625 C32.2840625 33.9515625 32.2840625 33.9515625 32 42 C21.44 42 10.88 42 0 42 C0 28.14 0 14.28 0 0 Z " fill="#FE0101" transform="translate(8,3)"/>
<path d="M0 0 C0.99 0 1.98 0 3 0 C3.06058594 0.63808594 3.12117188 1.27617187 3.18359375 1.93359375 C3.26738281 2.75988281 3.35117187 3.58617187 3.4375 4.4375 C3.51871094 5.26121094 3.59992187 6.08492187 3.68359375 6.93359375 C3.78930815 8.98662025 3.78930815 8.98662025 5 10 C7.32817964 10.36760731 9.6618385 10.70241581 12 11 C12.33 12.32 12.66 13.64 13 15 C10.18431914 15.72403222 8.30524938 16.06700596 5.4375 15.4375 C3.02631494 14.80718805 3.02631494 14.80718805 0.875 15.6875 C-1.27902161 17.19531513 -2.54821739 18.82232608 -4 21 C-5.32 20.67 -6.64 20.34 -8 20 C-6.9181242 17.47562314 -6.02564829 16.0225394 -3.9375 14.1875 C-1.31661037 11.22843106 -1.34060102 8.88285162 -1 5 C-0.68033861 3.33065717 -0.35268934 1.6626783 0 0 Z " fill="#FFD7D7" transform="translate(22,18)"/>
<path d="M0 0 C6.75 5.625 6.75 5.625 9 9 C6.03 9 3.06 9 0 9 C0 6.03 0 3.06 0 0 Z " fill="#FBE3E1" transform="translate(29,5)"/>
<path d="M0 0 C0.8125 1.6875 0.8125 1.6875 1 4 C-1.1875 6.8125 -1.1875 6.8125 -4 9 C-6.3125 8.8125 -6.3125 8.8125 -8 8 C-6.48291727 4.46014029 -4.24676932 0 0 0 Z " fill="#FFE1E1" transform="translate(22,30)"/>
<path d="M0 0 C0.99 0 1.98 0 3 0 C3 1.98 3 3.96 3 6 C2.01 6.33 1.02 6.66 0 7 C-0.38133299 5.0085944 -0.71325582 3.00720923 -1 1 C-0.67 0.67 -0.34 0.34 0 0 Z " fill="#FFEEEE" transform="translate(22,18)"/>
<path d="M0 0 C1.98 0 3.96 0 6 0 C6.33 1.32 6.66 2.64 7 4 C5.35 4.33 3.7 4.66 2 5 C2.66 4.34 3.32 3.68 4 3 C2.68 2.01 1.36 1.02 0 0 Z " fill="#FFAFAF" transform="translate(28,29)"/>
</svg>
